<svg id="Groupe_11" data-name="Groupe 11" xmlns="http://www.w3.org/2000/svg" width="28.636" height="36.449" viewBox="0 0 28.636 36.449">
  <path id="Tracé_12" data-name="Tracé 12" d="M72.029,4.776h-3.3V3.3c0-.477-.521-.694-1-.694h-2.56A3.881,3.881,0,0,0,61.312,0a3.948,3.948,0,0,0-3.862,2.6H54.934c-.477,0-.955.217-.955.694V4.776h-3.3A3.688,3.688,0,0,0,47.037,8.29V33.152a3.491,3.491,0,0,0,3.645,3.3H72.029a3.491,3.491,0,0,0,3.645-3.3V8.29A3.688,3.688,0,0,0,72.029,4.776ZM55.715,4.342H58.1a.955.955,0,0,0,.824-.781,2.516,2.516,0,0,1,2.386-1.952,2.473,2.473,0,0,1,2.343,1.952.955.955,0,0,0,.868.781H67V7.813H55.715Zm18.223,28.81a1.76,1.76,0,0,1-1.909,1.562H50.682a1.76,1.76,0,0,1-1.909-1.562V8.29a1.952,1.952,0,0,1,1.909-1.779h3.3V8.724a.911.911,0,0,0,.955.824h12.8a.954.954,0,0,0,1-.824V6.511h3.3A1.953,1.953,0,0,1,73.938,8.29V33.152Z" transform="translate(-47.037 0)"/>
  <path id="Tracé_13" data-name="Tracé 13" d="M106.011,230.582a.868.868,0,0,0-1.215-.043l-2.777,2.647-1.171-1.215a.868.868,0,0,0-1.215-.043.911.911,0,0,0,0,1.258l1.779,1.822a.781.781,0,0,0,.607.26.868.868,0,0,0,.607-.26l3.384-3.211a.824.824,0,0,0,.05-1.165C106.045,230.615,106.028,230.6,106.011,230.582Z" transform="translate(-95.034 -211.185)"/>
  <path id="Tracé_14" data-name="Tracé 14" d="M209.4,256.034h-9.979a.868.868,0,0,0,0,1.736H209.4a.868.868,0,0,0,0-1.736Z" transform="translate(-185.965 -234.771)"/>
  <path id="Tracé_15" data-name="Tracé 15" d="M106.011,146.99a.868.868,0,0,0-1.215-.043l-2.777,2.647-1.171-1.215a.868.868,0,0,0-1.215-.043.911.911,0,0,0,0,1.258l1.779,1.822a.781.781,0,0,0,.607.26.868.868,0,0,0,.607-.26l3.384-3.211a.824.824,0,0,0,.05-1.165C106.045,147.023,106.028,147.006,106.011,146.99Z" transform="translate(-95.034 -134.535)"/>
  <path id="Tracé_16" data-name="Tracé 16" d="M209.4,172.442h-9.979a.868.868,0,1,0,0,1.736H209.4a.868.868,0,1,0,0-1.736Z" transform="translate(-185.965 -158.121)"/>
  <path id="Tracé_17" data-name="Tracé 17" d="M106.011,314.173a.868.868,0,0,0-1.215-.043l-2.777,2.647-1.171-1.215a.868.868,0,0,0-1.215-.043.911.911,0,0,0,0,1.258l1.779,1.822a.781.781,0,0,0,.607.26.867.867,0,0,0,.607-.26l3.384-3.211a.824.824,0,0,0,.05-1.165C106.045,314.206,106.028,314.189,106.011,314.173Z" transform="translate(-95.034 -287.834)"/>
  <path id="Tracé_18" data-name="Tracé 18" d="M209.4,339.626h-9.979a.868.868,0,1,0,0,1.736H209.4a.868.868,0,1,0,0-1.736Z" transform="translate(-185.965 -311.421)"/>
</svg>
