<svg xmlns="http://www.w3.org/2000/svg" width="65.999" height="66" viewBox="0 0 65.999 66">
  <g id="facebook-logo" transform="translate(0.052 0.158)">
    <path id="Soustraction_2" data-name="Soustraction 2" d="M31.181,66H10A10.011,10.011,0,0,1,0,56V10A10.011,10.011,0,0,1,10,0H56A10.011,10.011,0,0,1,66,10V56A10.011,10.011,0,0,1,56,66H43.176V43.018h8.671a1.161,1.161,0,0,0,1.16-1.159l0-9.349a1.16,1.16,0,0,0-1.16-1.16H43.176V25.88c0-2.629.627-3.965,4.052-3.965H52.2a1.161,1.161,0,0,0,1.159-1.16v-8.68a1.163,1.163,0,0,0-1.158-1.16L44.822,10.9C36.535,10.9,31.181,16.4,31.181,24.9V31.35H23.765a1.161,1.161,0,0,0-1.159,1.16v9.349a1.161,1.161,0,0,0,1.159,1.159h7.416V66Z" transform="translate(-0.052 -0.158)" fill="#fff"/>
  </g>
</svg>
