<svg xmlns="http://www.w3.org/2000/svg" width="66.001" height="66" viewBox="0 0 66.001 66">
  <g id="instagram-logo" transform="translate(-0.203 0.158)">
    <path id="Soustraction_1" data-name="Soustraction 1" d="M50.977,66H15.024A15.04,15.04,0,0,1,0,50.976V15.024A15.041,15.041,0,0,1,15.024,0H50.976A15.041,15.041,0,0,1,66,15.024V50.976A15.041,15.041,0,0,1,50.977,66ZM33,12.326A20.675,20.675,0,1,0,53.675,33,20.7,20.7,0,0,0,33,12.326ZM54.543,6.289a5.218,5.218,0,1,0,3.692,1.528A5.24,5.24,0,0,0,54.543,6.289ZM33,46.556A13.556,13.556,0,1,1,46.556,33,13.572,13.572,0,0,1,33,46.556Z" transform="translate(0.203 -0.158)" fill="#fff"/>
  </g>
</svg>
