<svg xmlns="http://www.w3.org/2000/svg" width="35.122" height="35.122" viewBox="0 0 35.122 35.122">
  <g id="Groupe_20" data-name="Groupe 20" transform="translate(0 -0.257)">
    <path id="Tracé_19" data-name="Tracé 19" d="M23.392,31.006l5.488,4.116V31.006h6.242V12.416H22.706V0H0V18.59H6.242v4.116L11.73,18.59h.686V31.006Zm9.672-2.058H26.822v2.058l-2.744-2.058h-9.6V14.474h18.59ZM11.044,16.532,8.3,18.59V16.532H2.058V2.058h18.59V12.416H16.139l-4.752-9.5L6.351,12.985l1.841.92,1.259-2.518h3.873l.514,1.029H12.416v4.116Zm1.251-7.2H10.48l.908-1.815Zm0,0" transform="translate(0 0.257)"/>
    <path id="Tracé_20" data-name="Tracé 20" d="M274.7,247.819a5.328,5.328,0,0,1-2.673,1.413v2.058a7.276,7.276,0,0,0,4.116-2,7.276,7.276,0,0,0,4.116,2v-2.058a5.328,5.328,0,0,1-2.673-1.413,7.528,7.528,0,0,0,1.5-2.7h2.2v-2.058h-4.116V241h-2.058v2.058H271v2.058h2.2A7.527,7.527,0,0,0,274.7,247.819Zm1.443-1.488a6.348,6.348,0,0,1-.759-1.216H276.9A6.343,6.343,0,0,1,276.145,246.331Zm0,0" transform="translate(-252.41 -224.211)"/>
  </g>
</svg>
