<svg xmlns="http://www.w3.org/2000/svg" width="66" height="66.001" viewBox="0 0 66 66.001">
  <path id="Soustraction_4" data-name="Soustraction 4" d="M56,66H10A10.011,10.011,0,0,1,0,56V10A10.011,10.011,0,0,1,10,0H56A10.011,10.011,0,0,1,66,10V56A10.011,10.011,0,0,1,56,66ZM26.031,21.551l.036,1.707c.024,1.162.036,4.7.036,10.525,0,5.793-.024,13.534-.072,23.007h11.7V37.126a8.634,8.634,0,0,1,.391-2.88,7.583,7.583,0,0,1,2.258-3.04,5.786,5.786,0,0,1,3.752-1.228,5.077,5.077,0,0,1,4.5,2.116,10.331,10.331,0,0,1,1.44,5.849V56.788h11.7v-20.2c0-5.169-1.245-9.146-3.7-11.822a12.678,12.678,0,0,0-9.778-4.036,14.164,14.164,0,0,0-4.072.552,9.263,9.263,0,0,0-3.093,1.547,13.246,13.246,0,0,0-3.4,3.73V21.551Zm-18.2,0V56.789H19.56V21.552ZM13.764,4.591A6.72,6.72,0,0,0,8.982,6.315a5.752,5.752,0,0,0-1.832,4.356,5.853,5.853,0,0,0,1.778,4.338,6.447,6.447,0,0,0,4.693,1.742h.071a6.728,6.728,0,0,0,4.819-1.742,5.657,5.657,0,0,0,1.8-4.338,5.959,5.959,0,0,0-1.814-4.356A6.53,6.53,0,0,0,13.764,4.591Z" transform="translate(0 0)" fill="#fff"/>
</svg>
