<svg xmlns="http://www.w3.org/2000/svg" width="33.345" height="32.221" viewBox="0 0 33.345 32.221">
  <g id="Groupe_19" data-name="Groupe 19" transform="translate(0 -3.124)">
    <path id="Tracé_21" data-name="Tracé 21" d="M31.391,18.392V2.895a.961.961,0,0,0-.977-.944h-4.95V.944a.977.977,0,0,0-1.954,0V1.951H19.6V.944a.977.977,0,0,0-1.954,0V1.951H13.742V.944a.977.977,0,0,0-1.954,0V1.951H7.88V.944a.977.977,0,0,0-1.954,0V1.951H.977A.961.961,0,0,0,0,2.895V27.5a.961.961,0,0,0,.977.944H17.246a8.875,8.875,0,0,0,7.307,3.776,8.658,8.658,0,0,0,8.792-8.5A8.282,8.282,0,0,0,31.391,18.392ZM5.926,3.839v.944a.977.977,0,0,0,1.954,0V3.839h3.908v.944a.977.977,0,0,0,1.954,0V3.839h3.908v.944a.977.977,0,0,0,1.954,0V3.839h3.908v.944a.977.977,0,0,0,1.954,0V3.839h3.973V7.615H1.954V3.839ZM1.954,26.558V9.5H29.437v7.162a8.981,8.981,0,0,0-12.261,2.442,1,1,0,0,0-.439-.1H14.784a.945.945,0,1,0,0,1.888h1.48a8.187,8.187,0,0,0-.448,1.888H14.784a.945.945,0,1,0,0,1.888h1.032a8.174,8.174,0,0,0,.448,1.888Zm22.6,3.776a6.734,6.734,0,0,1-6.838-6.608,6.842,6.842,0,0,1,13.676,0A6.734,6.734,0,0,1,24.553,30.333Zm0,0" transform="translate(0 3.124)"/>
    <path id="Tracé_22" data-name="Tracé 22" d="M365.371,304.7h-2.023v-2.023a.674.674,0,0,0-1.349,0v2.7a.674.674,0,0,0,.674.674h2.7a.674.674,0,0,0,0-1.349Zm0,0" transform="translate(-335.398 -278.712)"/>
    <path id="Tracé_23" data-name="Tracé 23" d="M93.023,182H91.674a.674.674,0,1,0,0,1.349h1.349a.674.674,0,0,0,0-1.349Zm0,0" transform="translate(-84.83 -167.219)"/>
    <path id="Tracé_24" data-name="Tracé 24" d="M93.023,242H91.674a.674.674,0,1,0,0,1.349h1.349a.674.674,0,0,0,0-1.349Zm0,0" transform="translate(-84.83 -223.376)"/>
    <path id="Tracé_25" data-name="Tracé 25" d="M93.023,302H91.674a.674.674,0,0,0,0,1.349h1.349a.674.674,0,0,0,0-1.349Zm0,0" transform="translate(-84.83 -279.533)"/>
    <path id="Tracé_26" data-name="Tracé 26" d="M212.674,183.349h1.349a.674.674,0,0,0,0-1.349h-1.349a.674.674,0,0,0,0,1.349Zm0,0" transform="translate(-197.626 -167.219)"/>
    <path id="Tracé_27" data-name="Tracé 27" d="M212.674,243.349h1.349a.674.674,0,0,0,0-1.349h-1.349a.674.674,0,0,0,0,1.349Zm0,0" transform="translate(-197.626 -223.376)"/>
    <path id="Tracé_28" data-name="Tracé 28" d="M93.023,362H91.674a.674.674,0,1,0,0,1.349h1.349a.674.674,0,0,0,0-1.349Zm0,0" transform="translate(-84.83 -335.689)"/>
    <path id="Tracé_29" data-name="Tracé 29" d="M332.674,183.349h1.349a.674.674,0,0,0,0-1.349h-1.349a.674.674,0,0,0,0,1.349Zm0,0" transform="translate(-309.489 -167.219)"/>
  </g>
</svg>
