<svg xmlns="http://www.w3.org/2000/svg" width="66" height="66.001" viewBox="0 0 66 66.001">
  <g id="twitter-logo" transform="translate(0.114 0.158)">
    <path id="Soustraction_3" data-name="Soustraction 3" d="M56,66H10A10.011,10.011,0,0,1,0,56V10A10.011,10.011,0,0,1,10,0H56A10.011,10.011,0,0,1,66,10V56A10.011,10.011,0,0,1,56,66ZM10.678,48.885a.771.771,0,0,0-.753.581.8.8,0,0,0,.382.881,27.632,27.632,0,0,0,13.883,3.743,28,28,0,0,0,11.864-2.517,26.2,26.2,0,0,0,8.681-6.5,28.51,28.51,0,0,0,5.315-8.9,28.106,28.106,0,0,0,1.807-9.743v-.153a1.711,1.711,0,0,1,.641-1.333,19.921,19.921,0,0,0,4-4.393.509.509,0,0,0,.029-.537.527.527,0,0,0-.462-.285.535.535,0,0,0-.217.048,18.564,18.564,0,0,1-3.219,1.085,10.063,10.063,0,0,0,2.65-4.219.518.518,0,0,0-.074-.467.534.534,0,0,0-.428-.221.521.521,0,0,0-.268.075,18.581,18.581,0,0,1-4.921,2.033,1.271,1.271,0,0,1-.308.039,1.3,1.3,0,0,1-.861-.329,10.068,10.068,0,0,0-6.661-2.514,10.766,10.766,0,0,0-3.189.492A9.753,9.753,0,0,0,32,22.772a10.71,10.71,0,0,0-.238,3.706.365.365,0,0,1-.091.283.376.376,0,0,1-.278.126.23.23,0,0,1-.035,0,26.394,26.394,0,0,1-18.141-9.691.526.526,0,0,0-.862.067A10.076,10.076,0,0,0,13.986,29.5a9.017,9.017,0,0,1-2.3-.889.52.52,0,0,0-.255-.067.528.528,0,0,0-.526.521,10.073,10.073,0,0,0,5.879,9.285l-.007,0h-.208a9,9,0,0,1-1.7-.162.543.543,0,0,0-.1-.01.527.527,0,0,0-.423.217.521.521,0,0,0-.076.47,10.147,10.147,0,0,0,7.969,6.862,18.6,18.6,0,0,1-10.4,3.159Z" transform="translate(-0.114 -0.158)" fill="#fff"/>
  </g>
</svg>
