<svg id="youtube-logo" xmlns="http://www.w3.org/2000/svg" width="66" height="66" viewBox="0 0 66 66">
  <path id="Soustraction_5" data-name="Soustraction 5" d="M49.5,66h-33A16.519,16.519,0,0,1,0,49.5v-33A16.519,16.519,0,0,1,16.5,0h33A16.519,16.519,0,0,1,66,16.5v33A16.519,16.519,0,0,1,49.5,66ZM19.009,13.97c-7.869,0-11.966,1.043-14.14,3.6-2.12,2.5-2.12,6.172-2.12,11.26v9.7c0,9.858,2.515,14.863,16.26,14.863H46.937c6.672,0,10.369-.865,12.761-2.986,2.452-2.176,3.5-5.728,3.5-11.877v-9.7c0-5.366-.164-9.064-2.356-11.477s-6.209-3.384-13.9-3.384Zm8.964,27.4a2.07,2.07,0,0,1-1.011-.261,1.794,1.794,0,0,1-.939-1.546V27.316a1.792,1.792,0,0,1,.937-1.544,2.077,2.077,0,0,1,1.911-.059l12.683,6.1a1.75,1.75,0,0,1,0,3.206L28.875,41.162A2.072,2.072,0,0,1,27.973,41.368Z" fill="#fff"/>
</svg>
